<svg width="213" height="35" viewBox="0 0 213 35" fill="none" xmlns="http://www.w3.org/2000/svg">
<path d="M0.15625 34V0.545454H14.5966C17.0795 0.545454 19.2521 0.997395 21.1143 1.90128C22.9766 2.80516 24.425 4.10653 25.4595 5.8054C26.4941 7.50426 27.0114 9.54072 27.0114 11.9148C27.0114 14.3106 26.4777 16.3307 25.4105 17.9751C24.3542 19.6196 22.8677 20.861 20.951 21.6996C19.0452 22.5381 16.8182 22.9574 14.2699 22.9574H5.64489V15.9006H12.4403C13.5076 15.9006 14.4169 15.7699 15.1683 15.5085C15.9306 15.2363 16.5133 14.8061 16.9162 14.218C17.33 13.63 17.5369 12.8622 17.5369 11.9148C17.5369 10.9564 17.33 10.1778 16.9162 9.57884C16.5133 8.96899 15.9306 8.52249 15.1683 8.23934C14.4169 7.94531 13.5076 7.79829 12.4403 7.79829H9.23864V34H0.15625ZM19.7585 18.6449L28.1222 34H18.2557L10.0881 18.6449H19.7585ZM62.5732 34H52.772L63.8146 0.545454H76.2294L87.272 34H77.4709L70.1527 9.75852H69.8913L62.5732 34ZM60.7436 20.8011H79.1697V27.5966H60.7436V20.8011ZM118.08 34L108.214 0.545454H118.342L122.915 21.1278H123.177L128.6 0.545454H136.572L141.995 21.1932H142.256L146.83 0.545454H156.958L147.092 34H138.401L132.717 15.3125H132.455L126.771 34H118.08ZM202.513 11.5881C202.371 11.0109 202.148 10.5045 201.843 10.0689C201.538 9.6224 201.157 9.24669 200.7 8.94176C200.253 8.62595 199.731 8.39181 199.132 8.23934C198.544 8.07599 197.896 7.99432 197.188 7.99432C195.663 7.99432 194.362 8.35914 193.284 9.08878C192.216 9.81842 191.4 10.8693 190.833 12.2415C190.278 13.6136 190 15.2689 190 17.2074C190 19.1676 190.267 20.8447 190.801 22.2386C191.334 23.6326 192.129 24.6998 193.186 25.4403C194.242 26.1809 195.554 26.5511 197.122 26.5511C198.505 26.5511 199.654 26.3497 200.569 25.9467C201.495 25.5438 202.186 24.9721 202.644 24.2315C203.101 23.491 203.33 22.6198 203.33 21.6179L204.898 21.7812H197.253V15.3125H212.085V19.9517C212.085 23.0009 211.437 25.6091 210.142 27.7763C208.856 29.9325 207.081 31.5878 204.816 32.7422C202.562 33.8857 199.976 34.4574 197.057 34.4574C193.801 34.4574 190.942 33.7659 188.481 32.3828C186.02 30.9998 184.098 29.0286 182.715 26.4695C181.343 23.9103 180.656 20.8665 180.656 17.3381C180.656 14.572 181.076 12.1217 181.914 9.98722C182.764 7.85275 183.94 6.05043 185.443 4.58025C186.945 3.09919 188.682 1.98295 190.654 1.23153C192.625 0.469222 194.737 0.0880669 196.992 0.0880669C198.974 0.0880669 200.814 0.371211 202.513 0.9375C204.223 1.4929 205.731 2.28788 207.038 3.32244C208.356 4.34612 209.417 5.56037 210.223 6.9652C211.029 8.37003 211.519 9.91098 211.693 11.5881H202.513Z" fill="white"/>
</svg>
